<svg xmlns="http://www.w3.org/2000/svg" xmlns:xlink="http://www.w3.org/1999/xlink" width="81" height="81" viewBox="0 0 81 81" fill="none">
<g  clip-path="url(#clip-path-85_127)">
<path d="M8.24016e-07 40.5061C0.000200179 41.1687 0.0166562 41.831 0.0493689 42.4929C0.0820813 43.1547 0.131012 43.8154 0.196159 44.4748C0.261306 45.1343 0.342593 45.7918 0.440017 46.4472C0.537443 47.1027 0.650889 47.7554 0.780357 48.4053C0.909826 49.0552 1.05516 49.7015 1.21636 50.3443C1.37756 50.9871 1.55442 51.6255 1.74697 52.2596C1.93951 52.8937 2.14749 53.5226 2.37091 54.1465C2.59433 54.7704 2.83293 55.3884 3.08668 56.0006C3.34045 56.6127 3.60908 57.2182 3.89257 57.8173C4.17606 58.4162 4.47408 59.0079 4.78662 59.5922C5.09915 60.1766 5.42583 60.7528 5.76667 61.3212C6.1075 61.8895 6.46206 62.4491 6.83037 62.9999C7.19867 63.5509 7.58028 64.0924 7.97517 64.6245C8.37005 65.1567 8.77774 65.6789 9.19832 66.191C9.61882 66.7032 10.0517 67.2047 10.4968 67.6956C10.942 68.1865 11.3989 68.6661 11.8676 69.1346C12.3363 69.603 12.8161 70.0597 13.3073 70.5046C13.7984 70.9496 14.3001 71.3821 14.8125 71.8024C15.3248 72.2226 15.8472 72.6301 16.3796 73.0247C16.9119 73.4193 17.4536 73.8006 18.0047 74.1687C18.5558 74.5367 19.1155 74.891 19.684 75.2316C20.2525 75.5721 20.829 75.8985 21.4135 76.2108C21.998 76.523 22.5898 76.8207 23.1889 77.1039C23.788 77.3871 24.3937 77.6554 25.006 77.9088C25.6183 78.1624 26.2364 78.4006 26.8604 78.6238C27.4844 78.8468 28.1135 79.0546 28.7476 79.2471C29.3818 79.4393 30.0203 79.6157 30.6632 79.7763C31.306 79.9368 31.9524 80.0824 32.6024 80.2113C33.2524 80.3403 33.9051 80.4534 34.5606 80.5507C35.2162 80.648 35.8736 80.7286 36.5331 80.7935C37.1926 80.8584 37.8533 80.9066 38.5152 80.9391C39.177 80.9715 39.8393 80.9881 40.502 80.9881C41.1647 80.9873 41.827 80.9707 42.4888 80.9383C43.1507 80.9058 43.8113 80.8576 44.4708 80.7919C45.1303 80.7271 45.7878 80.6456 46.4433 80.5483C47.0987 80.451 47.7514 80.3371 48.4014 80.2082C49.0513 80.0792 49.6976 79.9337 50.3404 79.7723C50.9832 79.6117 51.6216 79.4345 52.2557 79.2423C52.8898 79.0496 53.5188 78.8416 54.1427 78.6182C54.7666 78.3949 55.3846 78.1563 55.9968 77.9027C56.6089 77.649 57.2145 77.3804 57.8136 77.0969C58.4126 76.8135 59.0043 76.5156 59.5886 76.2031C60.173 75.8906 60.7493 75.564 61.3177 75.2233C61.886 74.8824 62.4457 74.5279 62.9966 74.1597C63.5476 73.7914 64.0891 73.4099 64.6213 73.0151C65.1535 72.6203 65.6757 72.2126 66.1879 71.7921C66.7001 71.3716 67.2016 70.9388 67.6926 70.4937C68.1835 70.0486 68.6632 69.5918 69.1317 69.1231C69.6003 68.6544 70.057 68.1746 70.5019 67.6835C70.9469 67.1925 71.3795 66.6908 71.7998 66.1785C72.2201 65.6661 72.6276 65.1438 73.0223 64.6115C73.417 64.0792 73.7984 63.5375 74.1665 62.9864C74.5345 62.4354 74.8889 61.8757 75.2295 61.3072C75.57 60.7388 75.8965 60.1623 76.2089 59.5778C76.5212 58.9934 76.8189 58.4016 77.1022 57.8026C77.3854 57.2035 77.6538 56.5978 77.9073 55.9855C78.1609 55.3733 78.3992 54.7552 78.6223 54.1312C78.8455 53.5073 79.0532 52.8782 79.2455 52.244C79.4377 51.6099 79.6149 50.9714 79.7755 50.3286C79.9361 49.6857 80.0816 49.0394 80.2105 48.3894C80.3395 47.7394 80.4526 47.0867 80.5499 46.4312C80.6472 45.7757 80.7286 45.1182 80.7935 44.4587C80.8584 43.7992 80.9066 43.1385 80.9391 42.4767C80.9715 41.8148 80.9881 41.1525 80.9881 40.4899C80.9873 39.8272 80.9715 39.1649 80.9391 38.5031C80.9066 37.8412 80.8576 37.1805 80.7927 36.521C80.7271 35.8615 80.6464 35.2041 80.5491 34.5485C80.4518 33.893 80.3379 33.2404 80.2089 32.5905C80.08 31.9405 79.9345 31.2941 79.7731 30.6514C79.6125 30.0086 79.4353 29.3702 79.2431 28.736C79.0507 28.1018 78.8429 27.4728 78.6196 26.849C78.3963 26.225 78.1578 25.6069 77.9042 24.9947C77.6506 24.3826 77.3821 23.7769 77.0987 23.1779C76.8153 22.5788 76.5174 21.9871 76.205 21.4027C75.8926 20.8183 75.566 20.2419 75.2253 19.6736C74.8846 19.1052 74.5302 18.5455 74.1619 17.9946C73.7937 17.4436 73.4122 16.902 73.0174 16.3697C72.6226 15.8375 72.2151 15.3153 71.7947 14.8031C71.3743 14.2909 70.9415 13.7892 70.4965 13.2982C70.0514 12.8072 69.5946 12.3275 69.126 11.859C68.6574 11.3904 68.1775 10.9336 67.6865 10.4886C67.1955 10.0436 66.6938 9.61091 66.1816 9.19057C65.6693 8.77014 65.147 8.36261 64.6147 7.9679C64.0824 7.57317 63.5408 7.19174 62.9898 6.82361C62.4389 6.45547 61.8791 6.10107 61.3107 5.7604C60.7423 5.41974 60.1659 5.09324 59.5815 4.78087C58.997 4.46851 58.4052 4.17067 57.8062 3.88736C57.2072 3.60405 56.6015 3.3356 55.9893 3.08202C55.3771 2.82845 54.759 2.59004 54.135 2.36681C53.5111 2.14358 52.8821 1.93578 52.2479 1.74343C51.6137 1.55108 50.9753 1.3744 50.3325 1.21339C49.6897 1.05239 49.0433 0.907255 48.3934 0.77798C47.7434 0.648708 47.0907 0.535457 46.4352 0.43823C45.7797 0.341002 45.1222 0.259913 44.4627 0.194965C43.8033 0.130015 43.1425 0.0812839 42.4807 0.0487704C41.8188 0.0162568 41.1565 0 40.4939 0C39.8311 6.59701e-05 39.1686 0.0163945 38.5066 0.0489856C37.8446 0.0815766 37.1838 0.130391 36.5242 0.195429C35.8646 0.260467 35.2069 0.34165 34.5513 0.438977C33.8956 0.536304 33.2428 0.64966 32.5927 0.779043C31.9426 0.908426 31.2961 1.05368 30.6532 1.21481C30.0103 1.37593 29.3717 1.55274 28.7374 1.74522C28.1031 1.9377 27.4739 2.14563 26.8499 2.369C26.2259 2.59238 25.6077 2.83093 24.9954 3.08466C24.383 3.33839 23.7773 3.60698 23.1782 3.89045C22.579 4.17393 21.9871 4.47193 21.4027 4.78445C20.8182 5.09698 20.2417 5.42366 19.6732 5.7645C19.1047 6.10533 18.545 6.45991 17.9939 6.82823C17.4428 7.19655 16.9011 7.57818 16.3687 7.97312C15.8364 8.36799 15.3141 8.77576 14.8018 9.19634C14.2895 9.61693 13.7878 10.0498 13.2967 10.495C12.8057 10.9401 12.3259 11.3971 11.8572 11.8659C11.3886 12.3346 10.9318 12.8146 10.4867 13.3058C10.0417 13.797 9.60902 14.2988 9.18859 14.8112C8.76817 15.3236 8.36064 15.8461 7.96584 16.3785C7.57108 16.911 7.18962 17.4528 6.82146 18.004C6.45331 18.5552 6.0989 19.115 5.75823 19.6836C5.41757 20.2522 5.09106 20.8288 4.77871 21.4134C4.46636 21.9981 4.16853 22.59 3.88525 23.1892C3.60196 23.7884 3.33354 24.3942 3.07999 25.0066C2.82645 25.619 2.58808 26.2373 2.3649 26.8614C2.14171 27.4856 1.93398 28.1147 1.74169 28.7491C1.54939 29.3834 1.37278 30.022 1.21185 30.6651C1.05092 31.308 0.905855 31.9546 0.776667 32.6047C0.647479 33.2548 0.534321 33.9077 0.43719 34.5633C0.34006 35.219 0.259075 35.8767 0.194235 36.5363C0.129396 37.1959 0.0807801 37.8568 0.0483885 38.5188C0.0159966 39.1808 -0.000132623 39.8433 8.24016e-07 40.5061Z"   fill="#FFFFFF" >
</path>
<path     fill="#B8D4FF"  d="M70.2015 67.8605C69.118 62.1795 59.1355 56.75 50.1757 53.7836C49.7375 53.6376 47.0105 52.4121 48.7189 47.2342C53.1826 42.6609 56.5669 35.2959 56.5669 28.0444C56.5669 16.9053 49.145 11.058 40.5179 11.058C31.8907 11.058 24.4891 16.8973 24.4891 28.0444C24.4891 35.3202 27.8734 42.7138 32.3453 47.2789C34.0902 51.844 30.9736 53.5443 30.3163 53.7715C21.7947 56.8434 11.8933 62.2931 10.8018 67.8484C10.2474 67.2462 9.7117 66.6277 9.19485 65.9928C8.67792 65.358 8.18077 64.7081 7.70336 64.043C7.22595 63.3781 6.76915 62.6993 6.33295 62.0065C5.89675 61.3137 5.48198 60.6084 5.0886 59.8904C4.69525 59.1725 4.32402 58.4434 3.97492 57.7028C3.62584 56.9624 3.29954 56.2121 2.99601 55.4517C2.69249 54.6914 2.4123 53.9226 2.15546 53.1454C1.89862 52.3681 1.66559 51.5838 1.45639 50.7923C1.24718 50.0008 1.06216 49.2037 0.901342 48.401C0.74053 47.5984 0.604213 46.7915 0.49239 45.9806C0.380568 45.1696 0.293446 44.3561 0.231027 43.5398C0.168607 42.7236 0.131004 41.9062 0.118218 41.0876C0.105431 40.2691 0.117485 39.4509 0.154379 38.6331C0.191272 37.8153 0.252938 36.9994 0.339377 36.1854C0.425815 35.3713 0.536866 34.5606 0.672531 33.7533C0.808196 32.946 0.968219 32.1436 1.1526 31.3459C1.337 30.5484 1.54541 29.7571 1.77785 28.9721C2.01029 28.1872 2.26632 27.41 2.54595 26.6407C2.82558 25.8713 3.12828 25.1111 3.45407 24.36C3.77986 23.609 4.12813 22.8686 4.49888 22.1387C4.86963 21.4089 5.26218 20.691 5.67652 19.9849C6.09087 19.2788 6.52624 18.5861 6.98265 17.9064C7.43907 17.2269 7.91567 16.5618 8.41246 15.9111C8.9093 15.2604 9.42535 14.6255 9.96071 14.0061C10.4961 13.3868 11.0497 12.7843 11.6217 12.1986C12.1936 11.613 12.7827 11.0451 13.3892 10.4952C13.9957 9.94526 14.6182 9.41425 15.2569 8.90215C15.8955 8.39005 16.5491 7.89779 17.2176 7.42534C17.8862 6.95291 18.5685 6.50119 19.2645 6.0702C19.9605 5.63919 20.6688 5.22969 21.3897 4.84171C22.1106 4.45372 22.8425 4.08797 23.5856 3.74443C24.3286 3.40088 25.0814 3.0802 25.844 2.78237C26.6065 2.48454 27.3774 2.21012 28.1566 1.9591C28.9358 1.70808 29.7219 1.48092 30.5149 1.27763C31.3078 1.07434 32.1062 0.895303 32.9101 0.740493C33.714 0.585687 34.5217 0.455407 35.3336 0.349651C36.1454 0.243897 36.9596 0.162863 37.7763 0.10655C38.593 0.0502367 39.4106 0.0187478 40.2292 0.0120834C41.0479 0.00541898 41.8659 0.0235913 42.6834 0.0666002C43.5009 0.109609 44.3163 0.177376 45.1297 0.269899C45.9431 0.362424 46.7529 0.479534 47.5592 0.621232C48.3655 0.762928 49.1667 0.928953 49.9629 1.1193C50.7591 1.30965 51.5488 1.52398 52.3319 1.76228C53.1151 2.00058 53.8904 2.26241 54.6576 2.5478C55.4249 2.83316 56.1828 3.14156 56.9314 3.47295C57.6799 3.80434 58.4178 4.15814 59.1448 4.53434C59.8719 4.91054 60.5869 5.30844 61.2898 5.72806C61.9927 6.14767 62.6822 6.58822 63.3584 7.04969C64.0345 7.51117 64.6961 7.99272 65.343 8.49438C65.9899 8.99604 66.621 9.51685 67.2363 10.0568C67.8517 10.5968 68.45 11.155 69.0314 11.7312C69.6128 12.3075 70.1761 12.901 70.7215 13.5115C71.267 14.122 71.7933 14.7485 72.3006 15.3909C72.8079 16.0335 73.2953 16.6907 73.7627 17.3628C74.2301 18.0348 74.6767 18.7205 75.1025 19.4196C75.5283 20.1189 75.9324 20.8303 76.3151 21.554C76.6977 22.2778 77.0579 23.0124 77.3959 23.758C77.7339 24.5037 78.0489 25.2588 78.341 26.0236C78.6331 26.7883 78.9018 27.5612 79.147 28.3422C79.392 29.1233 79.6135 29.911 79.8105 30.7055C80.0082 31.5 80.1807 32.2998 80.3294 33.1048C80.4789 33.9098 80.6031 34.7185 80.7027 35.531C80.8024 36.3437 80.8775 37.1585 80.9274 37.9755C80.978 38.7926 81.0033 39.6105 81.0033 40.4291C81.0033 40.7436 81.0002 41.058 80.993 41.3724C80.9859 41.6867 80.9748 42.001 80.9598 42.3151C80.9456 42.6293 80.9274 42.9432 80.9052 43.2568C80.8839 43.5705 80.8586 43.8839 80.8285 44.197C80.7992 44.5101 80.766 44.8229 80.7296 45.1352C80.6932 45.4474 80.6529 45.7593 80.6086 46.0707C80.5651 46.382 80.5176 46.6928 80.4654 47.0031C80.4148 47.3134 80.3594 47.623 80.3009 47.9319C80.2424 48.2409 80.1807 48.5491 80.1142 48.8566C80.0486 49.1641 79.979 49.4709 79.9062 49.7767C79.8334 50.0826 79.7575 50.3875 79.6768 50.6916C79.5969 50.9956 79.513 51.2987 79.4252 51.6008C79.3382 51.903 79.2481 52.2041 79.1534 52.504C79.0589 52.804 78.961 53.1028 78.8597 53.4005C78.7583 53.6982 78.6535 53.9946 78.5452 54.2898C78.4369 54.585 78.3251 54.879 78.2099 55.1716C78.0947 55.4642 77.976 55.7553 77.854 56.0452C77.7319 56.335 77.6065 56.6233 77.4777 56.9101C77.3488 57.197 77.2167 57.4823 77.0812 57.7661C76.9456 58.0498 76.8067 58.332 76.6646 58.6125C76.5225 58.893 76.377 59.1718 76.2283 59.4488C76.0796 59.7259 75.9277 60.0012 75.7725 60.2747C75.6174 60.5482 75.459 60.8199 75.2975 61.0897C75.1359 61.3595 74.9712 61.6273 74.8034 61.8933C74.6356 62.1592 74.4646 62.4231 74.2906 62.685C74.1166 62.947 73.9395 63.2068 73.7594 63.4645C73.5792 63.7223 73.396 63.9779 73.2099 64.2313C73.0238 64.4848 72.8347 64.736 72.6427 64.9851C72.4506 65.2341 72.2557 65.4808 72.0579 65.7252C71.8601 65.9696 71.6594 66.2118 71.4558 66.4514C71.2523 66.6912 71.046 66.9285 70.837 67.1634C70.6279 67.3983 70.4161 67.6307 70.2015 67.8605">
</path>
</g>
<defs>
<clipPath id="clip-path-85_127">
<path d="M0 81L81 81L81 0L0 0L0 81Z" fill="white"/>
</clipPath>
</defs>
</svg>
