<svg xmlns="http://www.w3.org/2000/svg" xmlns:xlink="http://www.w3.org/1999/xlink" width="15.5516357421875" height="17.84765625" viewBox="0 0 15.5516357421875 17.84765625" fill="none">
<path d="M10.4564 11.2523C10.5267 10.9312 10.3649 10.6102 10.079 10.4695C10.7798 10.2023 11.422 9.78515 11.9704 9.2414C12.9923 8.21953 13.5571 6.86015 13.5571 5.41406C13.5571 3.97031 12.9923 2.60859 11.9704 1.58672C10.9485 0.564844 9.58682 0 8.14073 0C6.69464 0 5.33292 0.564844 4.31105 1.58672C3.28917 2.60859 2.72433 3.96797 2.72433 5.41406C2.72433 6.85781 3.28917 8.21953 4.31105 9.2414C4.85011 9.78047 5.48292 10.1906 6.16964 10.4578C5.86729 10.5328 5.56729 10.6219 5.27433 10.732C4.38839 11.0578 3.57042 11.5336 2.84151 12.1383C1.37667 13.3594 0.371205 15.0562 0.0126125 16.9195C-0.0600438 17.3016 0.188394 17.6719 0.572768 17.7445C0.617299 17.7539 0.66183 17.7562 0.706361 17.7562C1.03683 17.7562 1.33449 17.5219 1.39777 17.1844C2.0212 13.9641 4.85714 11.6297 8.14542 11.6297C8.64464 11.6297 9.13917 11.6836 9.62198 11.7891C9.99698 11.8711 10.3696 11.6297 10.4564 11.2523ZM4.13292 5.41406C4.13292 3.20859 5.93058 1.41094 8.14073 1.41094C10.3509 1.41094 12.1485 3.20625 12.1485 5.41406C12.1485 7.62187 10.3485 9.41484 8.14073 9.41484C5.93058 9.41484 4.13292 7.61953 4.13292 5.41406ZM9.35948 13.2539C9.35948 13.5773 9.62198 13.8398 9.94542 13.8398L14.9657 13.8398C15.2892 13.8398 15.5517 13.5773 15.5517 13.2539C15.5517 12.9305 15.2892 12.668 14.9657 12.668L9.94542 12.668C9.61964 12.668 9.35948 12.9305 9.35948 13.2539ZM14.9634 14.6719L9.94542 14.6719C9.62198 14.6719 9.35948 14.9344 9.35948 15.2578C9.35948 15.5812 9.62198 15.8437 9.94542 15.8437L14.9657 15.8437C15.2892 15.8437 15.5517 15.5812 15.5517 15.2578C15.5517 14.9344 15.2892 14.6719 14.9634 14.6719ZM12.7321 16.6758L9.94307 16.6758C9.61964 16.6758 9.35714 16.9383 9.35714 17.2617C9.35714 17.5852 9.61964 17.8477 9.94307 17.8477L12.7321 17.8477C13.0556 17.8477 13.3181 17.5852 13.3181 17.2617C13.3181 16.9383 13.0579 16.6758 12.7321 16.6758Z"   fill="#333333" >
</path>
</svg>
