<?xml version="1.0" standalone="no"?><!DOCTYPE svg PUBLIC "-//W3C//DTD SVG 1.1//EN" "http://www.w3.org/Graphics/SVG/1.1/DTD/svg11.dtd"><svg t="1731632427265" class="icon" viewBox="0 0 1024 1024" version="1.1" xmlns="http://www.w3.org/2000/svg" p-id="151000" xmlns:xlink="http://www.w3.org/1999/xlink" width="32" height="32"><path d="M938.269767 190.511628v626.306977H578.67907c-19.051163 0-35.72093 7.144186-50.009303 21.432558-7.144186 7.144186-14.288372 16.669767-16.669767 26.195349l-4.762791 4.76279v-4.76279c-2.381395-9.525581-9.525581-19.051163-16.669767-26.195349-14.288372-14.288372-30.95814-21.432558-50.009302-21.432558H80.967442V190.511628H11.906977v695.367442H695.367442l-14.288372-40.483721c14.288372-4.762791 28.576744-7.144186 45.246511-7.144186 14.288372 0 30.95814 2.381395 45.246512 7.144186l-14.288372 40.483721h250.046512V190.511628h-69.060466zM776.334884 7.144186c0-4.762791-4.762791-7.144186-11.906977-7.144186h-78.586047c-4.762791 0-9.525581 4.762791-9.525581 7.144186v50.009302h100.018605V7.144186z" fill="#34CA9D" p-id="151001"></path><path d="M152.409302 254.809302h166.697675V216.706977h-166.697675zM152.409302 523.906977h202.418605v-38.102326H152.409302zM152.409302 445.32093h283.386047V404.837209H152.409302zM152.409302 364.353488h283.386047v-38.102325H152.409302z" fill="#282D33" p-id="151002"></path><path d="M795.386047 123.832558V57.153488h-138.120931v66.67907h-78.586046c-28.576744 0-52.390698 11.906977-69.060465 33.339535-16.669767-19.051163-40.483721-33.339535-69.060465-33.339535H59.534884V833.488372h381.023256c21.432558 0 40.483721 14.288372 47.627907 30.95814v16.669767h45.246511v-16.669767c7.144186-19.051163 26.195349-30.95814 47.627907-30.95814h78.586047l69.060465 188.130233L797.767442 833.488372h161.934884V123.832558h-164.316279zM488.186047 214.325581v592.967442c-14.288372-9.525581-30.95814-14.288372-47.627907-14.288372H100.018605V161.934884H440.55814c14.288372 0 26.195349 4.762791 35.72093 14.288372 7.144186 7.144186 11.906977 14.288372 14.288372 23.813953-2.381395 4.762791-2.381395 9.525581-2.381395 14.288372z m207.181395-119.069767h61.916279v28.576744h-61.916279V95.255814zM726.325581 909.693023l-19.051162-52.390697c11.906977-2.381395 26.195349-2.381395 38.102325 0l-19.051163 52.390697z m192.893024-116.688372H578.67907c-16.669767 0-33.339535 4.762791-47.627907 14.288372V214.325581c0-4.762791 0-9.525581-2.381396-14.288372 2.381395-9.525581 7.144186-16.669767 14.288373-21.432558 9.525581-9.525581 21.432558-14.288372 35.72093-14.288372h78.586046V166.697674h138.120931v-4.76279h123.832558v631.069767z" fill="#282D33" p-id="151003"></path><path d="M795.386047 164.316279h-138.120931v666.790698h138.120931v-142.883721z" fill="#F9C44F" p-id="151004"></path></svg>