<?xml version="1.0" standalone="no"?><!DOCTYPE svg PUBLIC "-//W3C//DTD SVG 1.1//EN" "http://www.w3.org/Graphics/SVG/1.1/DTD/svg11.dtd"><svg t="1738825684910" class="icon" viewBox="0 0 1024 1024" version="1.1" xmlns="http://www.w3.org/2000/svg" p-id="10831" xmlns:xlink="http://www.w3.org/1999/xlink" width="32" height="32"><path d="M152.96 152.96m42.88 0l632.32 0q42.88 0 42.88 42.88l0 632.32q0 42.88-42.88 42.88l-632.32 0q-42.88 0-42.88-42.88l0-632.32q0-42.88 42.88-42.88Z" fill="#F1EBFF" p-id="10832"></path><path d="M220.8 220.8m42.88 0l496.64 0q42.88 0 42.88 42.88l0 496.64q0 42.88-42.88 42.88l-496.64 0q-42.88 0-42.88-42.88l0-496.64q0-42.88 42.88-42.88Z" fill="#FF8067" p-id="10833"></path><path d="M279.04 789.12V292.48A42.88 42.88 0 0 1 320 249.6h479.36a42.88 42.88 0 0 0-40.32-28.8H263.68a42.88 42.88 0 0 0-42.88 42.88v497.28a42.88 42.88 0 0 0 42.88 42.88h17.92a42.24 42.24 0 0 1-2.56-14.72z" fill="#F15A3C" p-id="10834"></path><path d="M871.04 527.36H152.96a15.36 15.36 0 0 1 0-30.08h718.08a15.36 15.36 0 1 1 0 30.08z" fill="#54252C" p-id="10835"></path><path d="M512 885.76a15.36 15.36 0 0 1-15.36-15.36V152.96a15.36 15.36 0 0 1 30.08 0v718.08a15.36 15.36 0 0 1-14.72 14.72z" fill="#54252C" p-id="10836"></path><path d="M393.689723 499.096106a102.4 72.32 30 1 0 72.32-125.261914 102.4 72.32 30 1 0-72.32 125.261914Z" fill="#3E090E" p-id="10837"></path><path d="M828.16 885.76H195.84a58.24 58.24 0 0 1-57.6-57.6V195.84a58.24 58.24 0 0 1 57.6-57.6h632.32a58.24 58.24 0 0 1 57.6 57.6v632.32a58.24 58.24 0 0 1-57.6 57.6zM195.84 168.32a27.52 27.52 0 0 0-27.52 27.52v632.32a27.52 27.52 0 0 0 27.52 27.52h632.32a27.52 27.52 0 0 0 27.52-27.52V195.84a27.52 27.52 0 0 0-27.52-27.52z" fill="#54252C" p-id="10838"></path><path d="M363.52 682.88a15.36 15.36 0 0 1-14.72-14.08S341.76 537.6 506.24 497.28a15.36 15.36 0 1 1 5.76 29.44c-140.16 34.56-135.04 139.52-135.04 140.16a15.36 15.36 0 0 1-14.08 16z" fill="#3E090E" p-id="10839"></path><path d="M658.56 682.88a15.36 15.36 0 0 1-14.08-16c0-4.48 4.48-106.24-135.04-140.16a15.36 15.36 0 1 1 7.04-29.44c165.12 40.32 158.08 170.24 157.44 171.52a15.36 15.36 0 0 1-15.36 14.08z" fill="#3E090E" p-id="10840"></path><path d="M506.241871 487.754256a72.32 102.4 60 1 0 177.362002-102.4 72.32 102.4 60 1 0-177.362002 102.4Z" fill="#3E090E" p-id="10841"></path><path d="M407.249149 478.284707a65.92 46.72 30 1 0 46.72-80.921414 65.92 46.72 30 1 0-46.72 80.921414Z" fill="#FFD57F" p-id="10842"></path><path d="M536.061308 470.617723a46.72 65.92 60 1 0 114.176789-65.92 46.72 65.92 60 1 0-114.176789 65.92Z" fill="#FFD57F" p-id="10843"></path></svg>