<?xml version="1.0" standalone="no"?><!DOCTYPE svg PUBLIC "-//W3C//DTD SVG 1.1//EN" "http://www.w3.org/Graphics/SVG/1.1/DTD/svg11.dtd"><svg t="1732257569760" class="icon" viewBox="0 0 1024 1024" version="1.1" xmlns="http://www.w3.org/2000/svg" p-id="23983" xmlns:xlink="http://www.w3.org/1999/xlink" width="256" height="256"><path d="M339.1 863.6c1.4-6.3-1.1-12.7-6.4-16.3L298 823.6 263.3 800c-5.3-3.6-12.3-3.6-17.6 0l-28.9 19.7c-3.3 2.3-5.6 5.7-6.4 9.6-3.4 16.1-13.2 62.6-25.7 122.8-1.3 6.2 1.3 12.5 6.5 16.1l6.5 4.5 7.2 4.9c5.3 3.6 12.2 3.6 17.5 0 57.9-39.1 91-62.2 102.7-70.4 3.2-2.2 5.4-5.5 6.2-9.3l7.8-34.3z" fill="#CAECFF" p-id="23984"></path><path d="M254.5 822.8l30.1 20.5 30.1 20.5-5.9 25.9c-13 9.2-43.9 30.6-95.1 65.2L211 953l-2-1.4c11.1-53.7 20-95.6 23.9-114.1l21.6-14.7m0-25.5c-3.1 0-6.1 0.9-8.8 2.7l-28.9 19.7c-3.3 2.3-5.6 5.7-6.4 9.6-3.4 16.1-13.2 62.6-25.7 122.8-1.3 6.2 1.3 12.5 6.5 16.1l6.5 4.5 7.2 4.9c2.6 1.8 5.7 2.7 8.8 2.7 3 0 6.1-0.9 8.7-2.7 57.9-39.1 91-62.2 102.7-70.4 3.2-2.2 5.4-5.5 6.2-9.3l7.8-34.4c1.4-6.3-1.1-12.7-6.4-16.3L298 823.6 263.3 800c-2.7-1.8-5.7-2.7-8.8-2.7z" fill="" p-id="23985"></path><path d="M259.368 876.684l4.877 3.32-54.142 79.52-4.877-3.32z" fill="" p-id="23986"></path><path d="M263.6 862.6c-4.2 0-8.4 2-10.9 5.8-4.1 6-2.5 14.2 3.5 18.4 2.3 1.5 4.9 2.3 7.4 2.3 4.2 0 8.4-2 10.9-5.8 4.1-6 2.5-14.2-3.5-18.4-2.2-1.6-4.8-2.3-7.4-2.3z" fill="" p-id="23987"></path><path d="M672.4 154.8s-88-58.3-143.3 22.9l-73.2 107.6c-8.2 12-5.1 28.5 7 36.7 12 8.2 28.5 5.1 36.7-7l73-107.2c28.2-41.4 67.6-5.5 67.6-5.5l32.2-47.5z" fill="#5CC5FF" p-id="23988"></path><path d="M786.7 172.8l-62.4-42.5c-8.9-6.1-11.2-18.2-5.2-27.2l39.3-57.7c6.1-8.9 18.2-11.2 27.2-5.2L848 82.8c8.9 6.1 11.2 18.2 5.2 27.2l-39.3 57.7c-6.1 8.9-18.3 11.2-27.2 5.1z" fill="#4F95FC" p-id="23989"></path><path d="M775.7 62.3l55.4 37.7-34.6 50.8-55.4-37.7 34.6-50.8m-1.3-25.7c-6 0-11.9 2.9-15.6 8.2l-40.1 59c-5.8 8.6-3.6 20.3 5 26.1l63.6 43.3c3.2 2.2 6.9 3.3 10.6 3.3 6 0 11.9-2.9 15.6-8.2l40.1-59c5.8-8.6 3.6-20.3-5-26.1L785 39.9c-3.2-2.2-6.9-3.3-10.6-3.3z" fill="" p-id="23990"></path><path d="M329.4 888.1l-102.9-70c-10.4-7.1-13-21.2-6-31.5l466.3-684.9c7.1-10.4 21.2-13 31.5-6l102.9 70c10.4 7.1 13 21.2 6 31.5L360.9 882.1c-7 10.4-21.2 13.1-31.5 6z" fill="#83CDFF" p-id="23991"></path><path d="M556.586 199.287l58.358 39.734-20.599 30.253-58.358-39.733z" fill="#5CC5FF" p-id="23992"></path><path d="M559.8 215.8l38.7 26.4-7.2 10.6-38.7-26.4 7.2-10.6m-3.1-16.5l-20.6 30.3 58.4 39.7 20.6-30.3-58.4-39.7z" fill="" p-id="23993"></path><path d="M518.906 254.724l58.358 39.733-20.599 30.254-58.358-39.734z" fill="#5CC5FF" p-id="23994"></path><path d="M522.1 271.2l38.7 26.4-7.2 10.6-38.7-26.4 7.2-10.6m-3.2-16.5L498.3 285l58.4 39.7 20.6-30.3-58.4-39.7z" fill="" p-id="23995"></path><path d="M705.8 115.9l101.1 68.8-465 683.2L240.8 799l465-683.1m-0.4-24.4c-7.1 0-14.1 3.4-18.4 9.7L220.2 786.9c-6.9 10.1-4.3 24 5.9 30.9l103.7 70.6c3.8 2.6 8.2 3.9 12.5 3.9 7.1 0 14.1-3.4 18.4-9.7l466.8-685.7c6.9-10.1 4.3-24-5.9-30.9L717.9 95.4c-3.8-2.6-8.2-3.9-12.5-3.9z" fill="" p-id="23996"></path><path d="M605.3 158.3c11.7 0 22.9 2.8 31.8 5.9l-4.1 6c-9.3-4.1-18.6-6.1-27.7-6.1-14.6 0-35.5 5.3-52.6 30.3l-73 107.2c-0.7 1-1.7 1.1-2.2 1.1-0.5 0-1-0.1-1.4-0.5-1.2-0.8-1.5-2.4-0.7-3.6L548.6 191c15.1-21.9 33.6-32.7 56.7-32.7m0-23.7c-25.4 0-53.6 9.8-76.3 43.2l-73.2 107.6c-8.2 12-5.1 28.5 7 36.7 4.5 3.1 9.7 4.6 14.8 4.6 8.4 0 16.7-4 21.8-11.5l73-107.2c10.3-15.1 22.1-19.9 33-19.9 8.5 0 16.5 3 22.6 6.2 2.4 1.3 5 1.9 7.6 1.9 5.3 0 10.5-2.6 13.7-7.3l12.7-18.6c5.8-8.5 2.5-20.3-6.9-24.4-12.5-5.5-30.3-11.3-49.8-11.3z" fill="" p-id="23997"></path><path d="M621.58 197.464l42.38-62.243 140.439 95.62-42.379 62.243z" fill="#FFF188" p-id="23998"></path><path d="M670.2 168.2L771.3 237l-15.6 23-101.1-68.8 15.6-23m-6.3-33l-42.4 62.2L762 293l42.4-62.2-140.5-95.6z" fill="" p-id="23999"></path></svg>