<?xml version="1.0" standalone="no"?><!DOCTYPE svg PUBLIC "-//W3C//DTD SVG 1.1//EN" "http://www.w3.org/Graphics/SVG/1.1/DTD/svg11.dtd"><svg t="1733736540472" class="icon" viewBox="0 0 1024 1024" version="1.1" xmlns="http://www.w3.org/2000/svg" p-id="8591" width="32" height="32" xmlns:xlink="http://www.w3.org/1999/xlink"><path d="M47.104 159.488l-17.152-17.408c-15.616-15.616-15.616-41.216 0-56.832l5.12-5.12c15.616-15.616 40.96-15.616 56.32 0l17.152 17.408c15.616 15.616 15.616 41.216 0 56.832l-5.12 5.12c-15.36 15.616-40.704 15.616-56.32 0zM909.056 675.84c0-0.256 0-0.256 0 0l-57.856-58.368c-8.448-8.448-8.448-22.528 0-31.232 8.448-8.448 22.528-8.448 30.976 0l38.4 38.656v-0.256l19.2 19.456c16.896 16.896 44.544 16.896 61.44 0s16.896-44.8 0-61.952l-79.36-80.128c-27.648-199.168-197.632-352.512-403.2-352.512-49.664 0-97.28 8.96-141.312 25.6l-58.368-58.88c-9.472-9.472-24.576-9.472-34.048 0-9.472 9.472-9.472 24.832 0 34.304L330.24 196.096h-0.256l63.488 64c16.896 16.896 16.896 44.8 0 61.952-16.896 16.896-44.544 16.896-61.44 0L256.256 245.76l-0.256 0.256-58.88-59.648c-16.896-16.896-44.544-16.896-61.44 0S118.784 231.168 135.68 248.32l60.416 60.928-0.256 0.256 60.672 60.928c16.896 16.896 16.896 44.8 0 61.952-16.896 16.896-44.544 16.896-61.44 0l-45.568-46.08v0.256l-40.96-41.216c-23.04-23.04-60.416-23.04-83.456 0s-23.04 60.928 0 83.968l88.576 89.088c-1.28 13.312-2.048 26.88-2.048 40.704 0 105.472 39.68 201.728 104.704 274.432h604.928c16.64-18.688 31.488-38.656 44.8-60.16l29.696 29.952c19.2 19.456 50.944 19.456 70.144 0s19.2-51.2 0-70.656L909.056 675.84z" fill="#89DAF6" p-id="8592"></path><path d="M438.528 19.456l11.264 20.736 20.48 11.264-20.48 11.52-11.264 20.736-11.264-20.736-20.736-11.52 20.736-11.264z" fill="#FFFFFF" p-id="8593"></path><path d="M274.176 486.912l11.264 20.736 20.736 11.264-20.736 11.52-11.264 20.736-11.264-20.736-20.736-11.52 20.736-11.264zM700.928 314.88l18.688 34.56 34.304 18.944-34.304 18.688-18.688 34.56-18.688-34.56-34.304-18.688 34.304-18.944zM772.608 591.616l9.472 17.664 17.664 9.728-17.664 9.728-9.472 17.664-9.728-17.664-17.664-9.728 17.664-9.728z" fill="#89DAF6" p-id="8594"></path><path d="M845.568 169.728l11.264 20.736 20.736 11.264-20.736 11.52-11.264 20.736-11.264-20.736-20.48-11.52 20.48-11.264z" fill="#FFFFFF" p-id="8595"></path><path d="M609.536 70.144a29.952 29.696 90 1 0 59.392 0 29.952 29.696 90 1 0-59.392 0Z" fill="#FFFFFF" p-id="8596"></path><path d="M510.72 287.744a29.952 29.696 90 1 0 59.392 0 29.952 29.696 90 1 0-59.392 0Z" fill="#89DAF6" p-id="8597"></path><path d="M150.016 826.624h-3.584c-6.144 0-10.752 3.072-10.752 7.168s4.608 7.168 10.752 7.168h3.584c6.144 0 10.752-3.072 10.752-7.168s-4.608-7.168-10.752-7.168zM878.08 826.624H176.128c-6.144 0-10.752 3.072-10.752 7.168s4.608 7.168 10.752 7.168H878.08c6.144 0 10.752-3.072 10.752-7.168s-4.608-7.168-10.752-7.168zM120.32 826.624H66.816c-6.144 0-10.752 3.072-10.752 7.168s4.608 7.168 10.752 7.168H120.32c6.144 0 10.752-3.072 10.752-7.168s-4.352-7.168-10.752-7.168zM946.944 826.624h-43.008c-6.144 0-10.752 3.072-10.752 7.168s4.608 7.168 10.752 7.168h43.008c6.144 0 10.752-3.072 10.752-7.168s-4.352-7.168-10.752-7.168zM640 933.12h142.592c4.352 0 10.24-3.072 12.544-6.912l5.12-7.936c3.584-5.376 11.008-5.888 15.36-1.28l8.96 9.728c3.072 3.328 9.472 6.144 14.08 6.144H875.52c6.656 0 11.776 3.072 11.776 7.168 0 4.096-5.12 7.168-11.776 7.168h-40.704c-5.888 0-13.568-3.328-17.408-7.68l-3.84-4.096c-2.304-2.56-5.888-2.304-7.936 0.768l-1.28 2.048c-3.328 5.12-10.496 8.96-16.64 8.96H640c-6.656 0-11.776-3.072-11.776-7.168 0-3.84 4.864-6.912 11.776-6.912zM581.888 933.12h28.16c6.656 0 11.776 3.072 11.776 7.168 0 4.096-5.12 7.168-11.776 7.168h-28.16c-6.656 0-11.776-3.072-11.776-7.168s5.12-7.168 11.776-7.168z" fill="#000333" p-id="8598"></path><path d="M532.736 881.152c-4.864 0-8.704 3.072-8.704 7.168s3.84 7.168 8.704 7.168 8.704-3.072 8.704-7.168-4.096-7.168-8.704-7.168zM510.208 881.152H233.216c-6.656 0-11.776 3.072-11.776 7.168 0 4.096 5.12 7.168 11.776 7.168h276.992c6.656 0 11.776-3.072 11.776-7.168 0-4.096-5.12-7.168-11.776-7.168zM599.808 881.152h-44.8c-6.656 0-11.776 3.072-11.776 7.168 0 4.096 5.12 7.168 11.776 7.168h44.8c6.656 0 11.776-3.072 11.776-7.168 0-4.096-5.12-7.168-11.776-7.168z" fill="#000333" p-id="8599"></path><path d="M360.96 370.176l203.264 425.216 42.24-119.808z" fill="#F6EEEE" p-id="8600"></path><path d="M564.224 800c-1.792 0-3.328-1.024-4.096-2.56l-203.264-424.96c-1.024-2.048-0.256-4.608 1.792-5.888s4.608-0.768 5.888 1.024l245.248 305.408c1.024 1.28 1.28 2.816 0.768 4.352L568.32 797.184c-0.256 1.28-2.048 2.56-4.096 2.816 0.256 0 0.256 0 0 0z m-182.016-396.032L563.712 783.36l37.632-107.008-219.136-272.384z" fill="#1E1746" p-id="8601"></path><path d="M380.16 565.248l184.064 230.144-28.928-98.304z" fill="#F6EEEE" p-id="8602"></path><path d="M564.224 800c-1.28 0-2.56-0.512-3.584-1.792L376.576 568.32c-1.536-1.792-1.28-4.608 0.256-6.144 1.792-1.536 4.352-1.792 6.144-0.256l155.136 131.584c0.768 0.512 1.28 1.28 1.536 2.304l28.928 98.304c0.512 2.048-0.256 4.352-2.304 5.376-0.512 0.256-1.28 0.512-2.048 0.512z m-150.528-200.192l139.776 174.592-22.016-74.496-117.76-100.096z" fill="#1E1746" p-id="8603"></path><path d="M358.4 368.384l30.464 427.008 146.432-98.304zM358.4 368.384l401.152 288.768-153.088 18.432z" fill="#F6EEEE" p-id="8604"></path><path d="M371.968 567.04l1.536-0.256c2.048-0.256 3.584-2.048 3.328-4.096l-1.024-15.616c-0.256-2.048-2.048-3.84-4.096-3.584l-1.536 0.256c-2.048 0.256-3.584 2.048-3.328 4.096l1.024 15.616c0 2.304 2.048 3.84 4.096 3.584z" fill="#1E1746" p-id="8605"></path><path d="M539.136 694.528l-176.64-328.448c-1.024-1.792-3.328-2.816-5.376-2.304-2.048 0.512-3.328 2.56-3.328 4.864l11.52 159.744c0.256 2.048 2.048 3.84 4.096 3.584l1.536-0.256c2.048-0.256 3.584-2.048 3.328-4.096l-9.728-137.216c0-0.256 0.256-0.512 0.512-0.256l164.096 304.896v0.256l-135.68 91.136c-0.256 0-0.512 0-0.512-0.256l-14.592-204.288c-0.256-2.048-2.048-3.84-4.096-3.584l-1.536 0.256c-2.048 0.256-3.584 2.048-3.328 4.096l15.104 212.736c0 1.536 1.024 3.072 2.56 3.84 0.512 0.256 1.28 0.512 2.048 0.512s1.792-0.256 2.56-0.768l146.176-98.048c1.792-1.28 2.56-4.096 1.28-6.4z" fill="#1E1746" p-id="8606"></path><path d="M762.368 653.312l-147.2-105.984c-1.28-1.024-3.328-0.768-4.608 0.512l-1.536 1.792c-1.28 1.536-1.024 3.84 0.512 5.12l137.216 98.56c0.256 0.256 0.256 0.512-0.256 0.512l-137.984 16.64h-0.256l-223.488-276.992c-0.256-0.256 0-0.512 0.512-0.512l199.168 143.36c1.28 1.024 3.328 0.768 4.608-0.512l1.536-1.792c1.28-1.536 1.024-3.84-0.512-5.12L360.96 364.544c-1.792-1.28-4.352-1.024-5.888 0.512-1.536 1.792-1.536 4.352-0.256 6.144l248.064 307.2c0.768 1.024 2.304 1.792 3.584 1.792h0.512l153.088-18.432c1.792-0.256 3.328-1.536 3.84-3.328 0.512-2.048 0-4.096-1.536-5.12z" fill="#1E1746" p-id="8607"></path></svg>