<?xml version="1.0" standalone="no"?><!DOCTYPE svg PUBLIC "-//W3C//DTD SVG 1.1//EN" "http://www.w3.org/Graphics/SVG/1.1/DTD/svg11.dtd"><svg t="1732257832358" class="icon" viewBox="0 0 1024 1024" version="1.1" xmlns="http://www.w3.org/2000/svg" p-id="60900" xmlns:xlink="http://www.w3.org/1999/xlink" width="256" height="256"><path d="M754.2 374.1c14.7 36.6 22.9 76.5 22.9 118.3 0 175.5-142.3 317.9-317.9 317.9-28.3 0-55.7-3.7-81.9-10.7 42.9 25.1 92.7 39.5 146 39.5 160.1 0 289.8-129.8 289.8-289.8 0.1-65.9-21.9-126.6-58.9-175.2z" fill="#F8B62D" p-id="60901"></path><path d="M777.1 492.4c0-41.8-8.2-81.8-22.9-118.3-52.9-69.7-136.6-114.7-230.9-114.7-160.1 0-289.8 129.8-289.8 289.8 0 106.8 57.8 200.1 143.8 250.3 26.1 6.9 53.5 10.7 81.9 10.7 175.6 0.1 317.9-142.2 317.9-317.8z" fill="#FCEE21" p-id="60902"></path><path d="M509.3 849.2c-173.1 0-313.9-140.8-313.9-313.9 0-47.8 10.5-93.7 31.1-136.5 2.4-5 8.5-7.1 13.5-4.7 5 2.4 7.1 8.5 4.7 13.5-19.3 40-29.1 82.9-29.1 127.7 0 162 131.8 293.8 293.8 293.8s293.8-131.8 293.8-293.8-131.9-293.8-293.9-293.8c-70.5 0-138.7 25.4-192 71.5-4.2 3.6-10.6 3.2-14.2-1-3.6-4.2-3.2-10.6 1-14.2 57-49.2 129.8-76.4 205.2-76.4 173.1 0 313.9 140.8 313.9 313.9S682.4 849.2 509.3 849.2z" fill="#3E3A39" p-id="60903"></path><path d="M703.3 226.6c-15.1 0-27.3-12.3-27.3-27.3 0-15.1 12.3-27.3 27.3-27.3 15.1 0 27.3 12.3 27.3 27.3s-12.2 27.3-27.3 27.3z m0-41.3c-7.7 0-13.9 6.2-13.9 13.9s6.2 13.9 13.9 13.9 13.9-6.2 13.9-13.9c0-7.6-6.3-13.9-13.9-13.9z" fill="#47B7F8" p-id="60904"></path><path d="M260.2 270.2h-12v-12c0-3.2-2.6-5.8-5.8-5.8-3.2 0-5.8 2.6-5.8 5.8v12h-12c-3.2 0-5.8 2.6-5.8 5.8s2.6 5.8 5.8 5.8h12v12c0 3.2 2.6 5.8 5.8 5.8 3.2 0 5.8-2.6 5.8-5.8v-12h12c3.2 0 5.8-2.6 5.8-5.8s-2.6-5.8-5.8-5.8zM864.4 386.4h-12v-12c0-3.2-2.6-5.8-5.8-5.8-3.2 0-5.8 2.6-5.8 5.8v12h-12c-3.2 0-5.8 2.6-5.8 5.8s2.6 5.8 5.8 5.8h12v12c0 3.2 2.6 5.8 5.8 5.8 3.2 0 5.8-2.6 5.8-5.8v-12h12c3.2 0 5.8-2.6 5.8-5.8s-2.6-5.8-5.8-5.8z" fill="#F7E42F" p-id="60905"></path><path d="M123.6 543.9h-13.9V530a6.7 6.7 0 0 0-13.4 0v13.9H82.4a6.7 6.7 0 0 0 0 13.4h13.9v13.9a6.7 6.7 0 0 0 13.4 0v-13.9h13.9c3.7 0 6.7-3 6.7-6.7 0.1-3.7-2.9-6.7-6.7-6.7z" fill="#F8B62D" p-id="60906"></path><path d="M351.3 209.3m-10.1 0a10.1 10.1 0 1 0 20.2 0 10.1 10.1 0 1 0-20.2 0Z" fill="#F8B62D" p-id="60907"></path><path d="M802 262.5m-13.4 0a13.4 13.4 0 1 0 26.8 0 13.4 13.4 0 1 0-26.8 0Z" fill="#F8B62D" p-id="60908"></path><path d="M123.7 209.3m-13.4 0a13.4 13.4 0 1 0 26.8 0 13.4 13.4 0 1 0-26.8 0Z" fill="#F7E42F" p-id="60909"></path><path d="M136.7 392.2c-15.1 0-27.3-12.3-27.3-27.3 0-15.1 12.3-27.3 27.3-27.3s27.3 12.3 27.3 27.3-12.3 27.3-27.3 27.3z m0-41.3c-7.7 0-13.9 6.2-13.9 13.9s6.2 13.9 13.9 13.9 13.9-6.2 13.9-13.9c-0.1-7.6-6.3-13.9-13.9-13.9z" fill="#F8B62D" p-id="60910"></path><path d="M465.7 98.6c-1.5-1.4-3.8-1.4-5.3 0-0.7 0.7-1.1 1.6-1.1 2.6s0.4 1.9 1.1 2.6l11.9 11.9c0.7 0.7 1.6 1.1 2.6 1.1s1.9-0.4 2.6-1.1c1.4-1.5 1.4-3.8 0-5.3l-11.8-11.8zM497.2 130.1c-0.7-0.7-1.6-1.1-2.6-1.1s-1.9 0.4-2.6 1.1c-1.4 1.5-1.4 3.8 0 5.3l11.9 11.9c0.7 0.7 1.6 1.1 2.6 1.1s1.9-0.4 2.6-1.1c0.7-0.7 1.1-1.6 1.1-2.6s-0.4-1.9-1.1-2.6l-11.9-12zM494.6 116.9c1 0 1.9-0.4 2.6-1.1l11.9-11.9c0.7-0.7 1.1-1.6 1.1-2.6s-0.4-1.9-1.1-2.6c-1.5-1.5-3.8-1.5-5.3 0L492 110.5c-1.4 1.5-1.4 3.8 0 5.3 0.7 0.7 1.6 1.1 2.6 1.1zM472.4 130.1L460.5 142c-0.7 0.7-1.1 1.6-1.1 2.6s0.4 1.9 1.1 2.6c0.7 0.7 1.6 1.1 2.6 1.1s1.9-0.4 2.6-1.1l11.9-11.9c1.4-1.5 1.4-3.8 0-5.3-1.4-1.3-3.8-1.3-5.2 0.1zM474.7 123c0-2.1-1.7-3.7-3.7-3.7h-16.9c-2.1 0-3.7 1.7-3.7 3.7 0 2.1 1.7 3.7 3.7 3.7H471c2 0 3.7-1.7 3.7-3.7zM515.5 119.2h-16.9c-2.1 0-3.7 1.7-3.7 3.7 0 2.1 1.7 3.7 3.7 3.7h16.9c2.1 0 3.7-1.7 3.7-3.7 0.1-2-1.6-3.7-3.7-3.7zM484.8 88.5c-2.1 0-3.7 1.7-3.7 3.7v16.9c0 2.1 1.7 3.7 3.7 3.7s3.7-1.7 3.7-3.7V92.2c0-2-1.6-3.7-3.7-3.7zM484.8 133.1c-2.1 0-3.7 1.7-3.7 3.7v16.9c0 2.1 1.7 3.7 3.7 3.7s3.7-1.7 3.7-3.7v-16.9c0-2-1.6-3.7-3.7-3.7z" fill="#FAEE00" p-id="60911"></path><path d="M917.1 517.2c-1.5-1.4-3.8-1.4-5.3 0-0.7 0.7-1.1 1.6-1.1 2.6s0.4 1.9 1.1 2.6l11.9 11.9c0.7 0.7 1.6 1.1 2.6 1.1s1.9-0.4 2.6-1.1c1.4-1.5 1.4-3.8 0-5.3l-11.8-11.8zM948.7 548.7c-0.7-0.7-1.6-1.1-2.6-1.1s-1.9 0.4-2.6 1.1c-1.4 1.5-1.4 3.8 0 5.3l11.9 11.9c0.7 0.7 1.6 1.1 2.6 1.1s1.9-0.4 2.6-1.1c0.7-0.7 1.1-1.6 1.1-2.6s-0.4-1.9-1.1-2.6l-11.9-12zM946 535.5c1 0 1.9-0.4 2.6-1.1l11.9-11.9c0.7-0.7 1.1-1.6 1.1-2.6s-0.4-1.9-1.1-2.6c-1.5-1.5-3.8-1.5-5.3 0l-11.9 11.9c-1.4 1.5-1.4 3.8 0 5.3 0.8 0.6 1.7 1 2.7 1zM923.8 548.7l-11.9 11.9c-0.7 0.7-1.1 1.6-1.1 2.6s0.4 1.9 1.1 2.6c0.7 0.7 1.6 1.1 2.6 1.1s1.9-0.4 2.6-1.1l11.9-11.9c1.4-1.5 1.4-3.8 0-5.3-1.3-1.3-3.8-1.3-5.2 0.1zM926.1 541.6c0-2.1-1.7-3.7-3.7-3.7h-16.9c-2.1 0-3.7 1.7-3.7 3.7s1.7 3.7 3.7 3.7h16.9c2 0 3.7-1.7 3.7-3.7zM967 537.9h-16.9c-2.1 0-3.7 1.7-3.7 3.7s1.7 3.7 3.7 3.7H967c2.1 0 3.7-1.7 3.7-3.7s-1.7-3.7-3.7-3.7zM936.2 507.1c-2.1 0-3.7 1.7-3.7 3.7v16.9c0 2.1 1.7 3.7 3.7 3.7s3.7-1.7 3.7-3.7v-16.9c0-2-1.6-3.7-3.7-3.7zM936.2 551.7c-2.1 0-3.7 1.7-3.7 3.7v16.9c0 2.1 1.7 3.7 3.7 3.7s3.7-1.7 3.7-3.7v-16.9c0-2-1.6-3.7-3.7-3.7z" fill="#F8B62D" p-id="60912"></path><path d="M845.2 850.3h-24c-5.6 0-10.1-4.5-10.1-10.1s4.5-10.1 10.1-10.1h24c5.6 0 10.1 4.5 10.1 10.1s-4.6 10.1-10.1 10.1zM203.4 850.3h-30.7c-5.6 0-10.1-4.5-10.1-10.1s4.5-10.1 10.1-10.1h30.7c5.6 0 10.1 4.5 10.1 10.1s-4.5 10.1-10.1 10.1zM791.5 850.3H237.3c-5.6 0-10.1-4.5-10.1-10.1s4.5-10.1 10.1-10.1h554.1c5.6 0 10.1 4.5 10.1 10.1s-4.5 10.1-10 10.1z" fill="#3E3A39" p-id="60913"></path><path d="M376.9 327.6c-7.8 3.8-15 9.1-21 15.4-4.2 4.5-4.8 12.3 0 16.6 4.6 4.2 12.1 4.8 16.6 0 1.3-1.3 2.5-2.6 3.9-3.8 0.6-0.5 1.2-1.1 1.8-1.6 1.7-1.4-2.1 1.4 1-0.8 3-2.1 6.1-3.9 9.5-5.5 5.6-2.7 7.5-11.1 4.2-16.1-3.6-5.7-10-7-16-4.2zM331.7 369.5c-17.4 15.9-30.1 35.4-38.1 57.5-5.2 14.3 17.6 20.4 22.7 6.3 6.6-18.3 17.6-34.1 32-47.1 11.2-10.2-5.4-26.9-16.6-16.7z" fill="#FFFFFF" p-id="60914"></path><path d="M255.5 372c-2.2 0-4.4-0.7-6.2-2.2-4.4-3.5-5.1-9.8-1.7-14.2l24.6-31.1c3.4-4.4 9.8-5.1 14.2-1.7 4.4 3.5 5.1 9.8 1.7 14.2l-24.6 31.1c-2.1 2.6-5 3.9-8 3.9z" fill="#3E3A39" p-id="60915"></path><path d="M578.6 444.6m-33.3 0a33.3 33.3 0 1 0 66.6 0 33.3 33.3 0 1 0-66.6 0Z" fill="#FFFFFF" p-id="60916"></path><path d="M578.8 648.9m-33.1 0a33.1 33.1 0 1 0 66.2 0 33.1 33.1 0 1 0-66.2 0Z" fill="#FFFFFF" p-id="60917"></path><path d="M421.8 546.3m-32.3 0a32.3 32.3 0 1 0 64.6 0 32.3 32.3 0 1 0-64.6 0Z" fill="#FFFFFF" p-id="60918"></path><path d="M448.4 521.4c-3.3 0-6.5-1.6-8.4-4.6-3.1-4.7-1.8-10.9 2.9-14l87.5-57.4c4.7-3.1 10.9-1.8 14 2.9 3.1 4.7 1.8 10.9-2.9 14L454 519.7c-1.8 1.2-3.7 1.7-5.6 1.7z" fill="#3E3A39" p-id="60919"></path><path d="M532.9 624.7c-1.7 0-3.5-0.4-5.1-1.4L443.3 574c-4.8-2.8-6.4-9-3.6-13.8 2.8-4.8 9-6.4 13.8-3.6l84.5 49.3c4.8 2.8 6.4 9 3.6 13.8-1.9 3.2-5.3 5-8.7 5z" fill="#3E3A39" p-id="60920"></path><path d="M572.9 487.1c-28.8 0-52.3-23.5-52.3-52.3s23.5-52.3 52.3-52.3 52.3 23.5 52.3 52.3-23.5 52.3-52.3 52.3z m0-84.4c-17.7 0-32.1 14.4-32.1 32.1s14.4 32.1 32.1 32.1 32.1-14.4 32.1-32.1-14.4-32.1-32.1-32.1zM572.9 693.2c-28.8 0-52.3-23.5-52.3-52.3 0-28.8 23.5-52.3 52.3-52.3s52.3 23.5 52.3 52.3c0 28.9-23.5 52.3-52.3 52.3z m0-84.4c-17.7 0-32.1 14.4-32.1 32.1 0 17.7 14.4 32.1 32.1 32.1s32.1-14.4 32.1-32.1c0-17.7-14.4-32.1-32.1-32.1zM415 590.6c-28.8 0-52.3-23.5-52.3-52.3 0-28.8 23.5-52.3 52.3-52.3 28.8 0 52.3 23.5 52.3 52.3 0 28.8-23.4 52.3-52.3 52.3z m0-84.4c-17.7 0-32.1 14.4-32.1 32.1 0 17.7 14.4 32.1 32.1 32.1 17.7 0 32.1-14.4 32.1-32.1 0-17.7-14.4-32.1-32.1-32.1z" fill="#3E3A39" p-id="60921"></path></svg>