<?xml version="1.0" standalone="no"?><!DOCTYPE svg PUBLIC "-//W3C//DTD SVG 1.1//EN" "http://www.w3.org/Graphics/SVG/1.1/DTD/svg11.dtd"><svg t="1757383762336" class="icon" viewBox="0 0 1024 1024" version="1.1" xmlns="http://www.w3.org/2000/svg" p-id="49980" xmlns:xlink="http://www.w3.org/1999/xlink" width="32" height="32"><path d="M603.8752 39.32586667h-0.00106667c-212.304 0-384.4096 172.10666667-384.4096 384.41066666v429.6384h361.7984c224.79253333 0 407.024-182.2304 407.024-407.024v-22.61226666C988.28586667 211.43466667 816.1792 39.32693333 603.8752 39.32586667z" fill="#e6e6e6" p-id="49981" data-spm-anchor-id="a313x.search_index.0.i16.4a633a81ncjM8P" class="selected"></path><path d="M366.4448 412.43306667m-56.5312 0a56.5312 56.5312 0 1 0 113.0624 0 56.5312 56.5312 0 1 0-113.0624 0Z" fill="#404040" p-id="49982"></path><path d="M637.79413333 412.43306667m-56.5312 0a56.5312 56.5312 0 1 0 113.0624 0 56.5312 56.5312 0 1 0-113.0624 0Z" fill="#404040" p-id="49983"></path><path d="M851.96053333 949.84426667c-27.7792 0-50.5856-22.26453333-51.17013333-50.17173334-0.08853333-4.2208-0.02666667-29.62346667 0.17066667-101.14453333 0.29546667-106.84266667 0.84266667-304.30613333 0.01173333-326.8704-21.03146667-165.81866667-163.77706667-290.67946667-332.66666667-290.67946667-82.86506667 0-162.4128 30.22826667-223.99146666 85.11786667-60.67413333 54.08426667-99.32266667 127.78346667-108.93546667 207.66826667-0.73706667 21.8816-0.25386667 217.3216 0.00746667 323.0816 0.1792 72.91733333 0.23573333 98.7936 0.1504 102.8288-0.59306667 28.27093333-24 50.71893333-52.2624 50.11413333-28.24426667-0.59306667-50.66666667-23.94773333-50.11626667-52.18453333 0.06613333-4.64106667-0.0448-49.07413333-0.17173333-100.50666667-0.72-291.96373333-0.4-325.88053333 0.5024-333.6736 12.2112-105.408 62.8864-202.63573333 142.68906666-273.7696 80.3584-71.62986667 184.10453333-111.07733333 292.128-111.07733333 221.07093333 0 407.86346667 164.2816 434.49386667 382.1344 1.01653333 8.3168 1.37706667 42.8128 0.56 338.0992-0.1408 50.58346667-0.26133333 94.2688-0.192 98.80426666 0.592 28.27093333-21.8464 51.62453333-50.11733333 52.2176-0.36266667 0.00746667-0.72746667 0.01173333-1.09013334 0.01173334zM800.93333333 470.73066667v0z" fill="#404040" p-id="49984"></path><path d="M350.4448 982.4c-28.27733333 0-51.2-22.92266667-51.2-51.2V770.02986667c0-28.27733333 22.92266667-51.2 51.2-51.2s51.2 22.92266667 51.2 51.2V931.2c0 28.27733333-22.92266667 51.2-51.2 51.2zM583.97333333 982.4c-28.27733333 0-51.2-22.92266667-51.2-51.2V770.02986667c0-28.27733333 22.92266667-51.2 51.2-51.2s51.2 22.92266667 51.2 51.2V931.2c0 28.27733333-22.92373333 51.2-51.2 51.2z" fill="#404040" p-id="49985"></path></svg>