<?xml version="1.0" standalone="no"?><!DOCTYPE svg PUBLIC "-//W3C//DTD SVG 1.1//EN" "http://www.w3.org/Graphics/SVG/1.1/DTD/svg11.dtd"><svg t="1759050403396" class="icon" viewBox="0 0 1024 1024" version="1.1" xmlns="http://www.w3.org/2000/svg" p-id="1287" xmlns:xlink="http://www.w3.org/1999/xlink" width="32" height="32"><path d="M896 42.666667h-128l-170.666667 213.333333h128z" fill="#FF4C4C" p-id="1288"></path><path d="M768 42.666667h-128l-170.666667 213.333333h128z" fill="#3B8CFF" p-id="1289"></path><path d="M640 42.666667h-128L341.333333 256h128z" fill="#F1F1F1" p-id="1290"></path><path d="M128 42.666667h128l170.666667 213.333333H298.666667z" fill="#FF4C4C" p-id="1291"></path><path d="M256 42.666667h128l170.666667 213.333333h-128z" fill="#3B8CFF" p-id="1292"></path><path d="M384 42.666667h128l170.666667 213.333333h-128z" fill="#FBFBFB" p-id="1293"></path><path d="M298.666667 256h426.666666v213.333333H298.666667z" fill="#E3A815" p-id="1294"></path><path d="M512 661.333333m-320 0a320 320 0 1 0 640 0 320 320 0 1 0-640 0Z" fill="#FDDC3A" p-id="1295"></path><path d="M512 661.333333m-256 0a256 256 0 1 0 512 0 256 256 0 1 0-512 0Z" fill="#E3A815" p-id="1296"></path><path d="M512 661.333333m-213.333333 0a213.333333 213.333333 0 1 0 426.666666 0 213.333333 213.333333 0 1 0-426.666666 0Z" fill="#F5CF41" p-id="1297"></path><path d="M277.333333 256h469.333334a21.333333 21.333333 0 0 1 0 42.666667h-469.333334a21.333333 21.333333 0 0 1 0-42.666667z" fill="#D19A0E" p-id="1298"></path><path d="M277.333333 264.533333a12.8 12.8 0 1 0 0 25.6h469.333334a12.8 12.8 0 1 0 0-25.6h-469.333334z m0-17.066666h469.333334a29.866667 29.866667 0 1 1 0 59.733333h-469.333334a29.866667 29.866667 0 1 1 0-59.733333z" fill="#F9D525" p-id="1299"></path><path d="M512 746.666667l-100.309333 52.736 19.157333-111.701334-81.152-79.104 112.128-16.298666L512 490.666667l50.176 101.632 112.128 16.298666-81.152 79.104 19.157333 111.701334z" fill="#FFF2A0" p-id="1300"></path></svg>